<svg xmlns="http://www.w3.org/2000/svg" xmlns:xlink="http://www.w3.org/1999/xlink" width="500" zoomAndPan="magnify" viewBox="0 0 375 374.999991" height="500" preserveAspectRatio="xMidYMid meet" version="1.0"><defs><g/><clipPath id="7d4e017271"><path d="M 166 70.9375 L 196 70.9375 L 196 108 L 166 108 Z M 166 70.9375 " clip-rule="nonzero"/></clipPath><clipPath id="bf7115c6ca"><path d="M 138.09375 85 L 237 85 L 237 220.9375 L 138.09375 220.9375 Z M 138.09375 85 " clip-rule="nonzero"/></clipPath></defs><rect x="-37.5" width="450" fill="#ffffff" y="-37.499999" height="449.999989" fill-opacity="1"/><rect x="-37.5" width="450" fill="#004aad" y="-37.499999" height="449.999989" fill-opacity="1"/><path fill="#ffffff" d="M 210.039062 104.007812 C 206.203125 104.996094 202.65625 106.582031 199.476562 108.730469 C 198.882812 109.132812 198.207031 109.617188 197.746094 110.242188 C 197.394531 110.71875 197.085938 111.542969 197.230469 112.226562 C 197.304688 112.574219 197.484375 112.820312 197.773438 112.988281 C 198.8125 113.578125 201.09375 112.824219 202.882812 111.917969 C 205.828125 110.429688 209.234375 107.6875 209.957031 104.453125 C 209.988281 104.304688 210.019531 104.152344 210.039062 104.007812 Z M 169.136719 136.988281 C 168.988281 136.988281 168.847656 136.902344 168.777344 136.757812 L 167.195312 133.339844 C 163.335938 124.304688 165.585938 113.875 172.785156 107.371094 C 178 102.664062 184.914062 99.265625 192.25 97.804688 C 195.65625 97.128906 198.996094 96.898438 202.175781 97.125 C 204.507812 97.292969 207.152344 97.613281 209.035156 99.316406 C 210.171875 100.347656 210.792969 101.597656 210.871094 102.992188 C 211.042969 102.953125 211.214844 102.914062 211.386719 102.878906 C 214.074219 102.304688 220.550781 101.0625 222.726562 101.957031 C 222.929688 102.042969 223.023438 102.273438 222.941406 102.472656 C 222.859375 102.675781 222.625 102.769531 222.425781 102.6875 C 220.816406 102.027344 215.753906 102.75 211.554688 103.648438 C 211.320312 103.699219 211.085938 103.75 210.855469 103.804688 C 210.832031 104.074219 210.789062 104.347656 210.726562 104.628906 C 209.945312 108.128906 206.34375 111.054688 203.238281 112.625 C 202.015625 113.242188 198.992188 114.585938 197.386719 113.675781 C 196.898438 113.398438 196.578125 112.957031 196.460938 112.394531 C 196.261719 111.464844 196.644531 110.410156 197.109375 109.777344 C 197.644531 109.046875 198.382812 108.515625 199.035156 108.078125 C 202.359375 105.832031 206.070312 104.1875 210.089844 103.179688 C 210.0625 101.929688 209.53125 100.832031 208.503906 99.902344 C 206.808594 98.367188 204.320312 98.070312 202.117188 97.914062 C 199.007812 97.691406 195.742188 97.914062 192.402344 98.582031 C 185.203125 100.015625 178.425781 103.34375 173.316406 107.957031 C 166.363281 114.234375 164.195312 124.304688 167.917969 133.019531 L 169.496094 136.425781 C 169.585938 136.625 169.5 136.859375 169.304688 136.949219 C 169.25 136.972656 169.191406 136.988281 169.136719 136.988281 " fill-opacity="1" fill-rule="nonzero"/><path fill="#ffffff" d="M 197.382812 79.121094 C 196.601562 79.121094 195.800781 79.230469 195.050781 79.535156 C 194.84375 79.617188 194.589844 79.742188 194.476562 79.929688 C 194.164062 80.445312 194.808594 81.675781 195.460938 82.085938 C 197.664062 83.46875 199.035156 84.023438 201.433594 84.875 C 202.738281 85.339844 204.359375 85.703125 205.941406 85.820312 C 206.082031 84.824219 206.03125 83.839844 205.617188 82.9375 C 204.894531 81.347656 203.191406 80.242188 200.410156 79.550781 C 199.570312 79.339844 198.492188 79.121094 197.382812 79.121094 Z M 185.1875 127.457031 C 179.289062 127.457031 173.378906 129.496094 169.257812 133.378906 C 168.617188 133.984375 167.871094 134.804688 167.824219 135.75 C 167.804688 136.144531 167.925781 136.457031 168.195312 136.699219 C 169.546875 137.917969 173.914062 137.242188 175.558594 136.988281 L 175.953125 136.925781 C 179.738281 136.371094 183.421875 135.007812 186.601562 132.976562 C 188.589844 131.707031 190.410156 130.164062 192.007812 128.410156 C 189.808594 127.773438 187.5 127.457031 185.1875 127.457031 Z M 171.300781 138.191406 C 169.835938 138.191406 168.433594 137.976562 167.664062 137.285156 C 167.214844 136.878906 167.003906 136.347656 167.035156 135.710938 C 167.097656 134.484375 167.96875 133.511719 168.71875 132.804688 C 174.730469 127.136719 184.4375 125.265625 192.582031 127.757812 C 193.570312 126.601562 194.464844 125.359375 195.246094 124.050781 C 197.519531 120.253906 197.855469 116.09375 198.214844 111.691406 L 198.234375 111.445312 C 198.410156 109.320312 198.582031 107.410156 198.933594 105.515625 C 199.128906 104.460938 199.363281 103.511719 199.648438 102.613281 C 200.609375 99.582031 201.863281 96.589844 203.082031 93.699219 C 203.453125 92.808594 203.828125 91.917969 204.191406 91.027344 C 204.433594 90.445312 204.671875 89.859375 204.90625 89.273438 C 205.246094 88.417969 205.585938 87.507812 205.796875 86.597656 C 204.160156 86.46875 202.507812 86.09375 201.167969 85.617188 C 198.625 84.714844 197.210938 84.117188 195.042969 82.753906 C 194.132812 82.183594 193.1875 80.539062 193.800781 79.523438 C 194.035156 79.132812 194.433594 78.933594 194.757812 78.804688 C 196.769531 77.984375 199.054688 78.402344 200.601562 78.785156 C 203.628906 79.535156 205.503906 80.789062 206.335938 82.609375 C 206.8125 83.652344 206.882812 84.757812 206.738281 85.859375 C 207.800781 85.875 208.8125 85.769531 209.671875 85.484375 C 209.878906 85.417969 210.101562 85.53125 210.171875 85.738281 C 210.238281 85.945312 210.125 86.167969 209.917969 86.234375 C 208.945312 86.554688 207.789062 86.671875 206.597656 86.640625 C 206.375 87.644531 206.007812 88.636719 205.636719 89.566406 C 205.402344 90.15625 205.164062 90.742188 204.921875 91.328125 C 204.558594 92.21875 204.183594 93.113281 203.808594 94.003906 C 202.601562 96.878906 201.351562 99.851562 200.398438 102.851562 C 200.125 103.71875 199.898438 104.636719 199.707031 105.660156 C 199.363281 107.515625 199.195312 109.40625 199.023438 111.507812 L 199.003906 111.757812 C 198.636719 116.253906 198.289062 120.5 195.925781 124.453125 C 195.175781 125.710938 194.324219 126.902344 193.390625 128.023438 C 194.722656 128.484375 196.007812 129.066406 197.222656 129.773438 C 197.410156 129.882812 197.476562 130.125 197.363281 130.3125 C 197.253906 130.5 197.011719 130.5625 196.824219 130.453125 C 195.566406 129.722656 194.226562 129.128906 192.835938 128.667969 C 191.132812 130.585938 189.175781 132.269531 187.027344 133.640625 C 183.753906 135.730469 179.964844 137.136719 176.066406 137.707031 L 175.679688 137.765625 C 174.671875 137.921875 172.945312 138.191406 171.300781 138.191406 " fill-opacity="1" fill-rule="nonzero"/><g clip-path="url(#7d4e017271)"><path fill="#ffffff" d="M 177.054688 72.539062 C 176.578125 72.539062 176.070312 72.625 175.484375 72.734375 C 172.054688 73.386719 169.339844 74.757812 167.417969 76.808594 C 167 77.253906 166.832031 77.609375 166.898438 77.886719 C 166.933594 78.035156 167.011719 78.140625 167.152344 78.21875 C 167.550781 78.445312 168.261719 78.382812 168.789062 78.21875 C 172.308594 77.132812 175.515625 75.253906 178.179688 72.738281 C 177.8125 72.597656 177.445312 72.539062 177.054688 72.539062 Z M 189.019531 93.757812 C 188.476562 95.328125 187.976562 96.863281 187.507812 98.3125 C 187.191406 99.277344 186.886719 100.210938 186.589844 101.101562 C 185.78125 103.527344 185.847656 105.046875 186.804688 105.890625 C 187.785156 106.757812 189.4375 106.378906 190.257812 105.457031 C 190.679688 104.988281 190.972656 104.363281 191.109375 103.652344 C 191.558594 101.300781 190.992188 99.21875 190.316406 97.316406 C 189.894531 96.132812 189.460938 94.945312 189.019531 93.757812 Z M 188.167969 107.167969 C 187.492188 107.167969 186.824219 106.960938 186.28125 106.480469 C 184.675781 105.0625 185.261719 102.589844 185.839844 100.851562 C 186.136719 99.964844 186.441406 99.03125 186.757812 98.066406 C 187.320312 96.339844 187.921875 94.488281 188.585938 92.597656 C 187.488281 89.691406 186.359375 86.796875 185.25 83.96875 C 185.125 83.640625 185.003906 83.335938 184.886719 83.023438 C 183.546875 79.550781 181.882812 75.242188 178.902344 73.140625 C 176.117188 75.824219 172.738281 77.828125 169.023438 78.972656 C 168.351562 79.179688 167.40625 79.273438 166.761719 78.90625 C 166.433594 78.71875 166.214844 78.429688 166.128906 78.070312 C 165.953125 77.328125 166.453125 76.6875 166.84375 76.269531 C 168.882812 74.09375 171.738281 72.640625 175.339844 71.957031 C 176.59375 71.71875 177.671875 71.585938 178.785156 72.144531 C 179.109375 71.8125 179.425781 71.472656 179.734375 71.121094 C 179.878906 70.957031 180.128906 70.941406 180.292969 71.082031 C 180.457031 71.226562 180.472656 71.476562 180.328125 71.640625 C 180.050781 71.960938 179.761719 72.269531 179.46875 72.574219 C 182.574219 74.839844 184.261719 79.210938 185.621094 82.738281 C 185.742188 83.050781 185.859375 83.355469 185.976562 83.652344 C 186.980469 86.21875 188 88.828125 188.992188 91.449219 C 190.503906 87.273438 192.316406 83.007812 194.632812 79.601562 C 194.753906 79.421875 195 79.375 195.179688 79.496094 C 195.359375 79.617188 195.40625 79.863281 195.285156 80.042969 C 192.855469 83.617188 190.980469 88.1875 189.425781 92.589844 C 189.980469 94.078125 190.53125 95.566406 191.058594 97.054688 C 191.773438 99.058594 192.367188 101.265625 191.886719 103.800781 C 191.722656 104.648438 191.363281 105.40625 190.847656 105.984375 C 190.203125 106.703125 189.179688 107.167969 188.167969 107.167969 " fill-opacity="1" fill-rule="nonzero"/></g><path fill="#ffffff" d="M 167.746094 86.871094 C 168.335938 88.503906 169.125 90.109375 170.066406 91.566406 C 170.316406 91.949219 170.539062 92.242188 170.832031 92.425781 C 171.113281 92.601562 171.460938 92.632812 171.671875 92.5 C 171.878906 92.371094 171.976562 92.21875 171.996094 92.007812 C 172.0625 91.164062 170.859375 89.550781 168.855469 87.789062 C 168.535156 87.503906 168.183594 87.214844 167.78125 86.898438 C 167.769531 86.890625 167.757812 86.878906 167.746094 86.871094 Z M 156.253906 83.203125 C 154.367188 84.09375 153.03125 86.894531 152.339844 88.699219 C 151.402344 91.140625 151.371094 94.742188 153.160156 96.605469 C 153.898438 97.371094 154.652344 97.632812 155.410156 97.394531 C 156.808594 96.949219 157.738281 94.425781 157.929688 92.859375 C 158.304688 89.773438 157.714844 86.460938 156.253906 83.203125 Z M 154.867188 98.269531 C 154.078125 98.269531 153.304688 97.890625 152.59375 97.152344 C 150.554688 95.035156 150.550781 91.152344 151.601562 88.414062 C 152.492188 86.09375 153.90625 83.425781 155.914062 82.480469 C 155.242188 81.105469 154.410156 79.742188 153.429688 78.414062 C 153.300781 78.238281 153.335938 77.992188 153.511719 77.863281 C 153.6875 77.734375 153.933594 77.769531 154.0625 77.945312 C 155.09375 79.339844 155.960938 80.769531 156.664062 82.21875 C 156.949219 82.152344 157.25 82.121094 157.554688 82.128906 C 158.183594 82.148438 158.769531 82.3125 159.339844 82.472656 C 161.792969 83.164062 163.714844 83.855469 165.570312 84.714844 C 165.824219 84.832031 166.09375 84.960938 166.367188 85.097656 C 165.828125 83.066406 165.597656 81.066406 165.734375 79.316406 C 165.753906 79.097656 165.9375 78.9375 166.160156 78.953125 C 166.378906 78.972656 166.539062 79.160156 166.523438 79.378906 C 166.375 81.257812 166.671875 83.441406 167.335938 85.636719 C 167.652344 85.832031 167.96875 86.042969 168.269531 86.277344 C 168.683594 86.601562 169.042969 86.902344 169.378906 87.195312 C 170.703125 88.359375 172.90625 90.539062 172.78125 92.070312 C 172.742188 92.53125 172.503906 92.910156 172.089844 93.167969 C 171.617188 93.464844 170.957031 93.4375 170.410156 93.09375 C 169.972656 92.820312 169.667969 92.402344 169.402344 91.996094 C 168.242188 90.203125 167.3125 88.1875 166.671875 86.160156 C 166.1875 85.882812 165.691406 85.640625 165.238281 85.433594 C 163.421875 84.589844 161.539062 83.914062 159.125 83.234375 C 158.601562 83.085938 158.0625 82.933594 157.535156 82.917969 C 157.355469 82.914062 157.179688 82.929688 157.007812 82.957031 C 158.503906 86.320312 159.101562 89.75 158.710938 92.953125 C 158.507812 94.648438 157.492188 97.558594 155.652344 98.144531 C 155.390625 98.230469 155.128906 98.269531 154.867188 98.269531 " fill-opacity="1" fill-rule="nonzero"/><g clip-path="url(#bf7115c6ca)"><path fill="#ffffff" d="M 177.417969 86.964844 C 173.726562 90.558594 173.769531 97.414062 175.105469 101.316406 C 175.757812 103.21875 176.785156 104.382812 177.925781 104.511719 C 178.808594 104.609375 179.699219 104.050781 180.367188 102.976562 C 181.324219 101.429688 181.847656 99.0625 181.765625 96.644531 C 181.59375 91.480469 180.359375 88.308594 178.09375 87.214844 C 177.882812 87.113281 177.65625 87.027344 177.417969 86.964844 Z M 229.140625 118.410156 C 229.023438 118.410156 228.910156 118.4375 228.820312 118.507812 C 228.523438 118.753906 228.671875 119.375 228.75 119.632812 C 229.375 121.703125 230.808594 123.351562 232.492188 124.683594 C 232.617188 124.359375 232.6875 123.976562 232.695312 123.53125 C 232.742188 121.566406 231.621094 119.605469 229.898438 118.648438 C 229.773438 118.582031 229.4375 118.410156 229.140625 118.410156 Z M 149.011719 124.53125 C 151.585938 130.109375 157.847656 131.945312 163.191406 131.742188 C 163.953125 131.710938 164.824219 131.652344 165.585938 131.320312 C 166.339844 130.992188 166.890625 130.386719 167.027344 129.742188 C 167.207031 128.871094 166.679688 127.976562 166.207031 127.378906 C 162.523438 122.753906 155.601562 122.019531 150.960938 123.675781 C 150.289062 123.914062 149.640625 124.199219 149.011719 124.53125 Z M 231.601562 128.988281 C 231.464844 128.988281 231.335938 129.023438 231.234375 129.105469 C 230.949219 129.335938 230.910156 129.824219 230.894531 130.308594 C 230.8125 132.8125 230.511719 135.316406 230.199219 137.753906 C 230.441406 137.648438 230.683594 137.539062 230.921875 137.429688 C 231.175781 137.3125 231.453125 137.089844 231.773438 136.742188 C 232.277344 136.195312 232.65625 135.488281 232.867188 134.703125 C 233.148438 133.648438 233.164062 132.429688 232.917969 130.867188 C 232.832031 130.335938 232.714844 129.738281 232.359375 129.339844 C 232.175781 129.132812 231.871094 128.988281 231.601562 128.988281 Z M 205.136719 142.5625 C 204 142.5625 203.0625 142.828125 202.546875 143.5 C 202.210938 143.9375 202.183594 144.539062 202.214844 144.972656 C 202.453125 147.839844 205.425781 149.660156 207.878906 150.675781 C 210.539062 151.78125 213.332031 152.566406 216.175781 153.003906 C 217.90625 153.273438 220.804688 153.472656 223.171875 152.429688 C 220.464844 149.238281 216.894531 146.828125 213.660156 145.109375 C 211.722656 144.078125 207.859375 142.5625 205.136719 142.5625 Z M 147.558594 163.460938 C 150.976562 163.695312 154.976562 161.214844 157.539062 159.625 C 161.394531 157.242188 164.675781 153.996094 167.03125 150.234375 C 168.535156 147.839844 171.636719 141.066406 168.027344 138.511719 C 167.15625 137.894531 165.839844 137.285156 163.378906 138.066406 C 156.609375 140.210938 150.84375 146.234375 148.328125 153.789062 C 147.277344 156.949219 147.164062 160.261719 147.558594 163.460938 Z M 188.492188 220.941406 C 184.414062 220.945312 180.742188 218.074219 177.933594 215.480469 C 177.726562 215.289062 177.464844 215.054688 177.152344 214.777344 C 173.664062 211.660156 164.398438 203.378906 156.457031 188.417969 C 154.078125 183.9375 151.964844 179.878906 150.207031 175.59375 C 148.910156 172.429688 147.464844 168.425781 146.855469 164.175781 C 146.300781 164.082031 145.757812 163.921875 145.238281 163.671875 C 141.226562 161.769531 139.992188 155.09375 139.253906 151.105469 L 139.21875 150.910156 C 138.105469 144.902344 138.289062 139.460938 139.765625 134.734375 C 141.1875 130.183594 144.175781 126.40625 148.003906 124.183594 C 147.855469 123.804688 147.722656 123.410156 147.605469 123.003906 C 147.011719 120.929688 146.964844 118.589844 147.449219 115.640625 C 147.78125 113.621094 148.3125 111.609375 149.023438 109.660156 C 150.976562 104.308594 154.554688 98.90625 159.097656 94.453125 C 163.097656 90.53125 168.195312 87.714844 173.84375 86.308594 C 175.09375 85.996094 176.210938 85.925781 177.183594 86.101562 C 177.476562 85.84375 177.792969 85.605469 178.128906 85.382812 C 178.308594 85.261719 178.554688 85.3125 178.675781 85.492188 C 178.796875 85.675781 178.746094 85.921875 178.5625 86.039062 C 178.40625 86.144531 178.257812 86.25 178.113281 86.363281 C 178.222656 86.40625 178.332031 86.453125 178.4375 86.503906 C 181.019531 87.753906 182.367188 91.0625 182.554688 96.621094 C 182.597656 97.851562 182.53125 100.976562 181.039062 103.390625 C 180.203125 104.734375 179.039062 105.429688 177.839844 105.296875 C 176.382812 105.128906 175.113281 103.773438 174.359375 101.570312 C 172.960938 97.488281 172.886719 90.730469 176.464844 86.808594 C 175.742188 86.761719 174.929688 86.851562 174.035156 87.074219 C 168.523438 88.445312 163.546875 91.191406 159.648438 95.015625 C 155.1875 99.390625 151.679688 104.6875 149.761719 109.933594 C 149.070312 111.832031 148.554688 113.796875 148.226562 115.769531 C 147.761719 118.597656 147.804688 120.828125 148.367188 122.785156 C 148.464844 123.136719 148.578125 123.472656 148.703125 123.800781 C 149.347656 123.464844 150.011719 123.175781 150.695312 122.933594 C 156.457031 120.875 163.390625 122.578125 166.824219 126.886719 C 167.65625 127.933594 167.992188 128.976562 167.796875 129.90625 C 167.609375 130.808594 166.902344 131.609375 165.902344 132.042969 C 165.015625 132.429688 164.054688 132.496094 163.222656 132.53125 C 157.625 132.742188 151.058594 130.800781 148.316406 124.914062 C 144.699219 127.046875 141.875 130.640625 140.519531 134.96875 C 139.082031 139.570312 138.90625 144.886719 139.992188 150.765625 L 140.03125 150.960938 C 140.695312 154.550781 141.929688 161.230469 145.578125 162.960938 C 145.953125 163.140625 146.347656 163.265625 146.75 163.351562 C 146.371094 160.113281 146.507812 156.757812 147.578125 153.542969 C 150.171875 145.75 156.136719 139.535156 163.140625 137.3125 C 165.316406 136.625 166.964844 136.792969 168.484375 137.867188 C 172.445312 140.671875 169.707031 147.457031 167.703125 150.652344 C 165.28125 154.515625 161.910156 157.851562 157.957031 160.296875 C 155.339844 161.914062 151.296875 164.421875 147.667969 164.257812 C 148.28125 168.355469 149.679688 172.226562 150.9375 175.296875 C 152.683594 179.546875 154.785156 183.585938 157.152344 188.046875 C 165.03125 202.882812 174.21875 211.097656 177.679688 214.191406 C 177.996094 214.472656 178.257812 214.707031 178.46875 214.902344 C 181.433594 217.636719 185.382812 220.699219 189.628906 220.070312 C 191.953125 219.726562 193.980469 218.277344 195.300781 217.214844 C 200.035156 213.414062 204.40625 208.347656 208.054688 203.890625 C 211.523438 199.660156 213.601562 196.574219 216.007812 193.003906 C 216.734375 191.925781 217.488281 190.804688 218.324219 189.589844 C 224.246094 180.972656 227.675781 171.128906 227.5 163.253906 C 227.410156 159.246094 225.890625 155.871094 223.691406 153.066406 C 221.269531 154.226562 218.316406 154.132812 216.054688 153.785156 C 213.148438 153.335938 210.292969 152.535156 207.574219 151.40625 C 204.921875 150.304688 201.699219 148.300781 201.429688 145.035156 C 201.363281 144.21875 201.53125 143.523438 201.917969 143.019531 C 204.167969 140.09375 211.601562 143.121094 214.03125 144.410156 C 217.390625 146.199219 221.097656 148.710938 223.894531 152.058594 C 224.238281 151.851562 224.570312 151.617188 224.875 151.34375 C 227.667969 148.839844 228.664062 143.691406 229.007812 140.84375 C 229.085938 140.210938 229.167969 139.582031 229.246094 138.953125 C 228.632812 139.140625 227.992188 139.269531 227.316406 139.289062 C 227.039062 139.296875 226.738281 139.28125 226.460938 139.132812 C 225.945312 138.863281 225.769531 138.261719 225.683594 137.972656 C 224.980469 135.609375 224.820312 133.207031 225.210938 131.023438 C 225.265625 130.726562 225.335938 130.386719 225.535156 130.089844 C 225.78125 129.714844 226.15625 129.496094 226.492188 129.300781 C 228.167969 128.332031 229.785156 127.242188 231.304688 126.054688 C 231.585938 125.832031 231.859375 125.613281 232.078125 125.363281 C 230.253906 123.933594 228.683594 122.148438 227.992188 119.863281 C 227.726562 118.984375 227.84375 118.289062 228.324219 117.898438 C 228.796875 117.507812 229.511719 117.53125 230.28125 117.960938 C 232.253906 119.050781 233.539062 121.300781 233.484375 123.550781 C 233.472656 124.175781 233.355469 124.722656 233.140625 125.175781 C 234.28125 126 235.5 126.695312 236.632812 127.296875 C 236.824219 127.398438 236.898438 127.636719 236.796875 127.828125 C 236.695312 128.019531 236.457031 128.09375 236.265625 127.992188 C 235.113281 127.382812 233.878906 126.675781 232.710938 125.839844 C 232.445312 126.15625 232.121094 126.417969 231.789062 126.675781 C 230.242188 127.886719 228.59375 128.996094 226.890625 129.980469 C 226.605469 130.148438 226.335938 130.304688 226.191406 130.523438 C 226.078125 130.695312 226.027344 130.933594 225.988281 131.164062 C 225.617188 133.226562 225.773438 135.503906 226.4375 137.75 C 226.527344 138.046875 226.632812 138.332031 226.828125 138.4375 C 226.945312 138.5 227.125 138.503906 227.296875 138.5 C 228.007812 138.480469 228.695312 138.316406 229.359375 138.082031 C 229.691406 135.53125 230.019531 132.898438 230.105469 130.28125 C 230.121094 129.789062 230.148438 128.964844 230.738281 128.492188 C 231.410156 127.949219 232.425781 128.222656 232.949219 128.816406 C 233.445312 129.375 233.59375 130.105469 233.695312 130.742188 C 233.960938 132.417969 233.941406 133.738281 233.628906 134.902344 C 233.386719 135.816406 232.945312 136.636719 232.351562 137.277344 C 231.953125 137.707031 231.605469 137.984375 231.253906 138.144531 C 230.875 138.324219 230.484375 138.5 230.082031 138.65625 C 229.984375 139.417969 229.886719 140.175781 229.792969 140.9375 C 229.433594 143.894531 228.386719 149.253906 225.402344 151.929688 C 225.085938 152.214844 224.746094 152.460938 224.394531 152.679688 C 226.644531 155.582031 228.195312 159.078125 228.289062 163.238281 C 228.46875 171.269531 224.988281 181.289062 218.976562 190.035156 C 218.140625 191.25 217.386719 192.371094 216.664062 193.445312 C 214.246094 197.03125 212.15625 200.132812 208.667969 204.390625 C 204.988281 208.878906 200.585938 213.984375 195.792969 217.832031 C 194.402344 218.949219 192.261719 220.480469 189.746094 220.851562 C 189.324219 220.914062 188.90625 220.941406 188.492188 220.941406 " fill-opacity="1" fill-rule="nonzero"/></g><path fill="#ffffff" d="M 225.460938 102.980469 C 225.210938 102.980469 224.953125 103.054688 224.691406 103.199219 C 220.085938 105.761719 219.6875 113.175781 220.878906 117.617188 C 220.945312 117.859375 221.011719 118.097656 221.089844 118.335938 C 221.148438 118.300781 221.207031 118.269531 221.265625 118.234375 C 225.378906 115.839844 228.363281 110.144531 227.785156 105.796875 C 227.660156 104.863281 226.976562 103.582031 226.097656 103.140625 C 225.886719 103.03125 225.675781 102.980469 225.460938 102.980469 Z M 222.699219 123.578125 C 222.273438 126.542969 223.597656 129.503906 226.054688 130.863281 C 226.375 131.042969 226.609375 131.101562 226.765625 131.042969 C 226.964844 130.96875 227.0625 130.671875 227.035156 130.441406 C 227 130.128906 226.820312 129.828125 226.605469 129.492188 C 226.085938 128.683594 225.53125 127.871094 224.996094 127.085938 C 224.214844 125.941406 223.425781 124.78125 222.699219 123.578125 Z M 186.199219 146.863281 C 185.417969 146.863281 184.625 146.816406 183.824219 146.71875 C 178.988281 146.136719 172.28125 141.828125 172.796875 135.566406 C 172.816406 135.351562 173.007812 135.191406 173.222656 135.207031 C 173.441406 135.222656 173.601562 135.414062 173.585938 135.632812 C 173.109375 141.40625 179.390625 145.390625 183.917969 145.9375 C 192.390625 146.960938 199.960938 142.25 204.175781 133.34375 C 204.363281 132.949219 204.546875 132.554688 204.730469 132.164062 C 207.15625 126.972656 209.449219 122.070312 214.917969 120.257812 C 215.683594 120.003906 216.472656 119.8125 217.242188 119.625 C 218.339844 119.359375 219.394531 119.101562 220.371094 118.683594 C 220.28125 118.398438 220.195312 118.113281 220.117188 117.824219 C 218.859375 113.132812 219.332031 105.28125 224.308594 102.511719 C 225.019531 102.113281 225.757812 102.085938 226.449219 102.433594 C 227.691406 103.058594 228.433594 104.714844 228.566406 105.695312 C 229.183594 110.324219 226.023438 116.378906 221.664062 118.917969 C 221.558594 118.976562 221.453125 119.035156 221.347656 119.089844 C 221.660156 119.933594 222.035156 120.746094 222.449219 121.535156 C 222.832031 120.671875 223.398438 119.949219 224.09375 119.445312 C 224.96875 118.8125 226.054688 118.523438 227.015625 118.269531 C 227.226562 118.210938 227.441406 118.335938 227.5 118.546875 C 227.554688 118.757812 227.429688 118.976562 227.21875 119.03125 C 226.28125 119.28125 225.3125 119.539062 224.558594 120.085938 C 223.824219 120.613281 223.257812 121.445312 222.949219 122.449219 C 223.777344 123.894531 224.71875 125.28125 225.648438 126.640625 C 226.1875 127.429688 226.742188 128.25 227.269531 129.066406 C 227.53125 129.46875 227.765625 129.871094 227.820312 130.351562 C 227.878906 130.894531 227.632812 131.5625 227.039062 131.78125 C 226.527344 131.972656 226.015625 131.742188 225.671875 131.554688 C 222.671875 129.894531 221.183594 126.121094 222.097656 122.550781 C 221.539062 121.550781 221.039062 120.515625 220.632812 119.429688 C 219.597656 119.867188 218.496094 120.132812 217.425781 120.394531 C 216.675781 120.574219 215.898438 120.761719 215.167969 121.003906 C 210.023438 122.714844 207.796875 127.464844 205.445312 132.496094 C 205.261719 132.890625 205.078125 133.285156 204.890625 133.679688 C 200.917969 142.074219 194.046875 146.863281 186.199219 146.863281 " fill-opacity="1" fill-rule="nonzero"/><g fill="#ffffff" fill-opacity="1"><g transform="translate(90.523626, 255.312523)"><g><path d="M 14.863281 1.207031 C 15.226562 1.570312 15.585938 1.449219 15.828125 1.085938 C 26.582031 -11.480469 54.617188 -36.371094 63.316406 -36.371094 C 64.28125 -36.371094 64.644531 -36.007812 64.644531 -35.402344 C 64.644531 -33.109375 60.65625 -29.242188 55.945312 -24.648438 C 49.902344 -18.609375 42.652344 -11.480469 42.652344 -5.558594 C 42.652344 -3.019531 44.464844 -1.570312 47.488281 -1.570312 C 51.476562 -1.570312 58.605469 -4.832031 64.160156 -7.371094 C 65.734375 -8.097656 67.183594 -8.699219 68.390625 -9.183594 C 68.632812 -9.304688 68.753906 -9.546875 68.753906 -9.910156 C 68.753906 -10.269531 68.511719 -10.511719 68.148438 -10.511719 L 67.785156 -10.511719 C 66.578125 -10.027344 65.128906 -9.304688 63.558594 -8.578125 C 58 -6.042969 51.113281 -3.019531 47.488281 -3.019531 C 45.191406 -3.019531 44.105469 -3.867188 44.105469 -5.558594 C 44.105469 -10.875 50.871094 -17.640625 56.910156 -23.683594 C 61.625 -28.273438 65.972656 -32.503906 65.972656 -35.402344 C 65.972656 -36.855469 65.007812 -37.699219 63.316406 -37.699219 C 56.308594 -37.699219 38.304688 -23.320312 25.375 -10.753906 C 23.5625 -9.0625 23.078125 -9.0625 24.769531 -11.117188 C 27.914062 -14.863281 31.175781 -18.367188 34.074219 -21.507812 C 39.632812 -27.550781 44.105469 -32.261719 44.105469 -35.28125 C 44.105469 -37.214844 42.773438 -38.0625 40.117188 -38.0625 C 34.195312 -38.0625 22.714844 -33.46875 16.433594 -26.339844 C 16.3125 -26.21875 16.3125 -25.980469 16.3125 -25.859375 C 16.3125 -25.496094 16.675781 -25.132812 17.039062 -25.132812 C 17.160156 -25.132812 17.398438 -25.253906 17.519531 -25.375 C 23.5625 -32.261719 34.4375 -36.613281 40.117188 -36.613281 C 42.050781 -36.613281 42.652344 -36.25 42.652344 -35.28125 C 42.652344 -32.746094 38.667969 -28.394531 32.988281 -22.476562 C 27.308594 -16.3125 20.179688 -8.578125 14.621094 0.242188 C 14.378906 0.605469 14.5 0.964844 14.863281 1.207031 Z M 14.863281 1.207031 "/></g></g></g><g fill="#ffffff" fill-opacity="1"><g transform="translate(155.893785, 255.312523)"><g><path d="M 14.257812 0 C 18.488281 0 30.207031 -5.195312 36.371094 -9.425781 C 36.492188 -9.546875 36.613281 -9.667969 36.613281 -9.910156 C 36.613281 -10.269531 36.371094 -10.632812 36.007812 -10.632812 C 35.765625 -10.632812 35.644531 -10.632812 35.523438 -10.511719 C 29.242188 -6.164062 18.003906 -1.328125 14.257812 -1.328125 C 12.082031 -1.328125 11.238281 -2.054688 11.238281 -3.625 C 11.238281 -5.921875 13.894531 -8.941406 15.707031 -10.996094 C 17.039062 -12.566406 18.125 -14.136719 16.433594 -14.136719 C 15.707031 -14.136719 14.136719 -12.808594 10.269531 -9.667969 C 4.109375 -4.710938 0.605469 -2.296875 -0.847656 -2.296875 C -1.085938 -2.296875 -1.207031 -2.539062 -1.207031 -2.898438 C -1.207031 -4.472656 1.207031 -7.734375 5.316406 -11.359375 C 5.4375 -11.480469 5.558594 -11.601562 5.558594 -11.839844 C 5.558594 -12.203125 5.195312 -12.566406 4.832031 -12.566406 C 4.589844 -12.566406 4.472656 -12.445312 4.351562 -12.324219 C -0.121094 -8.335938 -2.660156 -4.953125 -2.660156 -2.777344 C -2.660156 -1.691406 -1.933594 -0.964844 -0.847656 -0.964844 C 1.085938 -0.964844 4.589844 -3.261719 11.117188 -8.578125 C 12.566406 -9.667969 12.445312 -9.425781 11.601562 -8.214844 C 10.632812 -6.644531 9.910156 -5.074219 9.910156 -3.625 C 9.910156 -1.207031 11.359375 0 14.257812 0 Z M 14.257812 0 "/></g></g></g><g fill="#ffffff" fill-opacity="1"><g transform="translate(189.122607, 255.312523)"><g><path d="M 1.570312 13.050781 C 8.820312 13.050781 29.84375 -0.605469 41.929688 -9.304688 C 42.050781 -9.425781 42.171875 -9.667969 42.171875 -9.910156 C 42.171875 -10.269531 41.929688 -10.511719 41.445312 -10.511719 C 41.324219 -10.511719 41.203125 -10.511719 41.082031 -10.390625 C 29.121094 -1.691406 8.457031 11.601562 1.570312 11.601562 C 0.121094 11.601562 -0.363281 11.117188 -0.363281 9.910156 C -0.363281 6.402344 5.800781 0.363281 11.722656 -5.4375 C 16.917969 -10.632812 22.113281 -15.707031 22.113281 -18.609375 C 22.113281 -20.058594 20.421875 -21.023438 18.367188 -22.957031 C 22.957031 -27.914062 26.339844 -32.382812 26.339844 -34.074219 C 26.339844 -34.921875 25.859375 -35.523438 25.011719 -35.523438 C 21.265625 -35.523438 12.808594 -29.121094 12.808594 -26.101562 C 12.808594 -25.011719 14.015625 -24.167969 16.191406 -22.714844 C 12.203125 -18.488281 7.128906 -13.894531 2.296875 -10.390625 C 2.175781 -10.269531 2.054688 -10.027344 2.054688 -9.910156 C 2.054688 -9.425781 2.296875 -9.183594 2.660156 -9.183594 C 2.898438 -9.183594 3.019531 -9.183594 3.140625 -9.304688 C 7.492188 -12.445312 12.929688 -17.277344 17.398438 -21.992188 C 19.816406 -20.300781 20.664062 -19.453125 20.664062 -18.609375 C 20.664062 -16.3125 15.949219 -11.601562 10.753906 -6.523438 C 4.832031 -0.605469 -1.691406 5.800781 -1.691406 9.910156 C -1.691406 11.839844 -0.726562 13.050781 1.570312 13.050781 Z M 17.160156 -23.683594 C 14.984375 -25.132812 14.257812 -25.859375 14.257812 -26.101562 C 14.257812 -28.152344 21.144531 -33.351562 24.40625 -33.953125 C 24.769531 -34.074219 25.011719 -33.832031 24.890625 -33.46875 C 24.046875 -31.417969 19.695312 -26.339844 17.160156 -23.683594 Z M 17.160156 -23.683594 "/></g></g></g><g fill="#ffffff" fill-opacity="1"><g transform="translate(227.909698, 255.312523)"><g><path d="M -0.484375 5.800781 C 3.503906 5.800781 8.699219 1.570312 11.117188 -1.933594 L 11.480469 -2.175781 C 14.621094 -3.140625 18.488281 -4.351562 22.59375 -5.558594 C 26.703125 -6.765625 31.054688 -7.976562 34.679688 -9.183594 C 35.042969 -9.304688 35.164062 -9.546875 35.164062 -9.910156 C 35.164062 -10.269531 34.921875 -10.511719 34.558594 -10.511719 L 34.316406 -10.511719 C 30.691406 -9.304688 26.339844 -8.097656 22.234375 -6.886719 C 18.851562 -5.921875 15.464844 -4.832031 12.566406 -3.988281 C 12.445312 -3.867188 12.324219 -3.988281 12.324219 -4.230469 C 12.445312 -4.472656 12.445312 -4.710938 12.566406 -4.832031 C 12.566406 -6.042969 11.722656 -6.523438 10.269531 -6.523438 C 9.304688 -6.523438 8.097656 -6.285156 6.765625 -6.042969 C 5.4375 -5.800781 3.988281 -5.558594 2.898438 -5.558594 C 1.8125 -5.558594 1.449219 -5.800781 1.449219 -6.164062 C 1.449219 -8.941406 7.734375 -13.773438 11.359375 -13.773438 C 11.960938 -13.773438 12.082031 -13.535156 12.082031 -13.171875 C 12.082031 -12.324219 10.996094 -10.996094 10.148438 -10.511719 C 9.910156 -10.390625 9.789062 -10.148438 9.789062 -9.910156 C 9.789062 -9.425781 10.148438 -9.183594 10.511719 -9.183594 C 10.632812 -9.183594 10.753906 -9.183594 10.875 -9.304688 C 11.960938 -9.910156 13.050781 -11.359375 13.414062 -12.808594 C 13.535156 -12.929688 13.535156 -13.171875 13.535156 -13.292969 C 13.535156 -14.378906 12.6875 -15.105469 11.359375 -15.105469 C 7.007812 -15.105469 0 -9.667969 0 -6.164062 C 0 -4.832031 1.085938 -4.230469 2.898438 -4.230469 C 4.109375 -4.230469 5.558594 -4.472656 7.007812 -4.710938 C 7.976562 -4.832031 10.996094 -5.316406 11.117188 -4.953125 C 11.359375 -4.589844 10.875 -3.988281 10.511719 -3.382812 C 10.511719 -3.261719 10.390625 -3.261719 10.269531 -3.261719 C 5.4375 -1.449219 -2.539062 1.933594 -2.539062 4.230469 C -2.539062 5.316406 -1.8125 5.800781 -0.484375 5.800781 Z M -0.484375 4.351562 C -1.085938 4.351562 -1.207031 4.351562 -1.207031 4.109375 C -1.207031 3.503906 3.019531 1.085938 8.097656 -0.964844 C 8.457031 -0.964844 8.578125 -0.847656 8.335938 -0.605469 C 5.921875 1.933594 2.296875 4.351562 -0.484375 4.351562 Z M -0.484375 4.351562 "/></g></g></g><g fill="#ffffff" fill-opacity="1"><g transform="translate(259.688531, 255.312523)"><g><path d="M 3.988281 0.363281 C 7.734375 0.363281 19.453125 -3.019531 27.914062 -9.304688 C 28.152344 -9.425781 28.273438 -9.667969 28.273438 -9.910156 C 28.273438 -10.269531 27.914062 -10.511719 27.550781 -10.511719 C 27.429688 -10.511719 27.308594 -10.511719 27.1875 -10.390625 C 18.851562 -4.351562 7.492188 -1.085938 3.988281 -1.085938 C 1.207031 -1.085938 -0.242188 -1.8125 -0.242188 -3.382812 C -0.242188 -4.953125 0.964844 -6.886719 2.539062 -8.578125 C 3.261719 -8.214844 4.230469 -8.097656 5.558594 -8.097656 C 7.734375 -8.097656 10.511719 -9.910156 10.511719 -11.480469 C 10.511719 -12.6875 9.667969 -13.414062 8.335938 -13.414062 C 4.351562 -13.414062 -1.691406 -7.371094 -1.691406 -3.382812 C -1.691406 -0.964844 0.484375 0.363281 3.988281 0.363281 Z M 5.558594 -9.425781 C 4.710938 -9.425781 4.109375 -9.546875 3.625 -9.667969 C 5.195312 -10.996094 6.886719 -11.960938 8.335938 -11.960938 C 8.941406 -11.960938 9.183594 -11.839844 9.183594 -11.480469 C 9.183594 -10.753906 6.886719 -9.425781 5.558594 -9.425781 Z M 5.558594 -9.425781 "/></g></g></g><g fill="#ffffff" fill-opacity="1"><g transform="translate(194.250022, 279.459298)"><g><path d="M 6.171875 -6.984375 C 6.335938 -6.890625 6.421875 -6.75 6.421875 -6.5625 C 6.421875 -6.425781 6.378906 -6.304688 6.296875 -6.203125 C 6.210938 -6.085938 6.09375 -6.03125 5.9375 -6.03125 C 5.84375 -6.03125 5.75 -6.054688 5.65625 -6.109375 C 5.21875 -6.359375 4.742188 -6.484375 4.234375 -6.484375 C 3.703125 -6.484375 3.234375 -6.363281 2.828125 -6.125 C 2.421875 -5.894531 2.101562 -5.570312 1.875 -5.15625 C 1.65625 -4.738281 1.546875 -4.253906 1.546875 -3.703125 C 1.546875 -3.117188 1.660156 -2.613281 1.890625 -2.1875 C 2.128906 -1.769531 2.453125 -1.445312 2.859375 -1.21875 C 3.265625 -1 3.722656 -0.890625 4.234375 -0.890625 C 4.753906 -0.890625 5.226562 -1.015625 5.65625 -1.265625 C 5.738281 -1.304688 5.832031 -1.328125 5.9375 -1.328125 C 6.09375 -1.328125 6.210938 -1.269531 6.296875 -1.15625 C 6.390625 -1.050781 6.4375 -0.9375 6.4375 -0.8125 C 6.4375 -0.726562 6.410156 -0.648438 6.359375 -0.578125 C 6.316406 -0.503906 6.253906 -0.445312 6.171875 -0.40625 C 5.898438 -0.25 5.59375 -0.125 5.25 -0.03125 C 4.90625 0.0625 4.566406 0.109375 4.234375 0.109375 C 3.546875 0.109375 2.914062 -0.0390625 2.34375 -0.34375 C 1.769531 -0.65625 1.3125 -1.097656 0.96875 -1.671875 C 0.625 -2.253906 0.453125 -2.929688 0.453125 -3.703125 C 0.453125 -4.421875 0.613281 -5.066406 0.9375 -5.640625 C 1.269531 -6.210938 1.722656 -6.660156 2.296875 -6.984375 C 2.878906 -7.316406 3.523438 -7.484375 4.234375 -7.484375 C 4.921875 -7.484375 5.566406 -7.316406 6.171875 -6.984375 Z M 6.171875 -6.984375 "/></g></g></g><g fill="#ffffff" fill-opacity="1"><g transform="translate(209.487969, 279.459298)"><g><path d="M 6.21875 -7.421875 C 6.375 -7.421875 6.5 -7.367188 6.59375 -7.265625 C 6.695312 -7.171875 6.75 -7.050781 6.75 -6.90625 L 6.75 -0.515625 C 6.738281 -0.367188 6.679688 -0.242188 6.578125 -0.140625 C 6.484375 -0.046875 6.359375 0 6.203125 0 C 6.066406 0 5.945312 -0.046875 5.84375 -0.140625 C 5.738281 -0.242188 5.6875 -0.367188 5.6875 -0.515625 L 5.6875 -3.265625 L 1.921875 -3.265625 L 1.921875 -0.515625 C 1.921875 -0.367188 1.867188 -0.242188 1.765625 -0.140625 C 1.660156 -0.046875 1.535156 0 1.390625 0 C 1.242188 0 1.117188 -0.046875 1.015625 -0.140625 C 0.921875 -0.242188 0.875 -0.367188 0.875 -0.515625 L 0.875 -6.90625 C 0.875 -7.050781 0.921875 -7.171875 1.015625 -7.265625 C 1.117188 -7.367188 1.25 -7.421875 1.40625 -7.421875 C 1.550781 -7.421875 1.671875 -7.367188 1.765625 -7.265625 C 1.867188 -7.171875 1.921875 -7.050781 1.921875 -6.90625 L 1.921875 -4.234375 L 5.6875 -4.234375 L 5.6875 -6.90625 C 5.6875 -7.050781 5.738281 -7.171875 5.84375 -7.265625 C 5.945312 -7.367188 6.070312 -7.421875 6.21875 -7.421875 Z M 6.21875 -7.421875 "/></g></g></g><g fill="#ffffff" fill-opacity="1"><g transform="translate(225.584018, 279.459298)"><g><path d="M 6.578125 -0.65625 C 6.597656 -0.59375 6.609375 -0.523438 6.609375 -0.453125 C 6.609375 -0.316406 6.5625 -0.203125 6.46875 -0.109375 C 6.375 -0.015625 6.265625 0.03125 6.140625 0.03125 C 6.035156 0.03125 5.941406 0.00390625 5.859375 -0.046875 C 5.773438 -0.109375 5.710938 -0.195312 5.671875 -0.3125 L 5.015625 -1.859375 L 1.734375 -1.859375 L 1.09375 -0.296875 C 1.050781 -0.191406 0.988281 -0.109375 0.90625 -0.046875 C 0.832031 0.00390625 0.742188 0.03125 0.640625 0.03125 C 0.492188 0.03125 0.378906 -0.00390625 0.296875 -0.078125 C 0.222656 -0.160156 0.1875 -0.269531 0.1875 -0.40625 C 0.1875 -0.425781 0.195312 -0.484375 0.21875 -0.578125 L 2.90625 -7.125 C 2.957031 -7.226562 3.023438 -7.3125 3.109375 -7.375 C 3.203125 -7.4375 3.304688 -7.460938 3.421875 -7.453125 C 3.523438 -7.453125 3.617188 -7.421875 3.703125 -7.359375 C 3.785156 -7.304688 3.847656 -7.226562 3.890625 -7.125 Z M 2.140625 -2.828125 L 4.609375 -2.828125 L 3.375 -5.796875 Z M 2.140625 -2.828125 "/></g></g></g><g fill="#ffffff" fill-opacity="1"><g transform="translate(240.864331, 279.459298)"><g><path d="M 6.53125 -0.84375 C 6.59375 -0.789062 6.644531 -0.726562 6.6875 -0.65625 C 6.738281 -0.582031 6.765625 -0.507812 6.765625 -0.4375 C 6.765625 -0.289062 6.710938 -0.179688 6.609375 -0.109375 C 6.515625 -0.0351562 6.398438 0 6.265625 0 C 6.128906 0 6.019531 -0.0234375 5.9375 -0.078125 C 5.71875 -0.203125 5.539062 -0.394531 5.40625 -0.65625 C 5.28125 -0.925781 5.21875 -1.328125 5.21875 -1.859375 C 5.21875 -2.210938 5.109375 -2.472656 4.890625 -2.640625 C 4.679688 -2.804688 4.40625 -2.890625 4.0625 -2.890625 L 1.921875 -2.890625 L 1.921875 -0.515625 C 1.921875 -0.359375 1.878906 -0.234375 1.796875 -0.140625 C 1.710938 -0.046875 1.601562 0 1.46875 0 C 1.3125 0 1.171875 -0.046875 1.046875 -0.140625 C 0.929688 -0.242188 0.875 -0.367188 0.875 -0.515625 L 0.875 -6.90625 C 0.875 -7.050781 0.921875 -7.171875 1.015625 -7.265625 C 1.117188 -7.367188 1.242188 -7.421875 1.390625 -7.421875 L 4.359375 -7.421875 C 4.742188 -7.421875 5.09375 -7.328125 5.40625 -7.140625 C 5.726562 -6.953125 5.984375 -6.691406 6.171875 -6.359375 C 6.367188 -6.035156 6.46875 -5.664062 6.46875 -5.25 C 6.46875 -4.851562 6.359375 -4.484375 6.140625 -4.140625 C 5.929688 -3.804688 5.660156 -3.550781 5.328125 -3.375 C 5.585938 -3.238281 5.789062 -3.050781 5.9375 -2.8125 C 6.09375 -2.570312 6.179688 -2.296875 6.203125 -1.984375 C 6.222656 -1.578125 6.25 -1.300781 6.28125 -1.15625 C 6.320312 -1.007812 6.40625 -0.90625 6.53125 -0.84375 Z M 4.34375 -3.765625 C 4.519531 -3.785156 4.6875 -3.859375 4.84375 -3.984375 C 5 -4.109375 5.125 -4.273438 5.21875 -4.484375 C 5.320312 -4.703125 5.375 -4.945312 5.375 -5.21875 C 5.375 -5.5625 5.269531 -5.847656 5.0625 -6.078125 C 4.851562 -6.316406 4.601562 -6.4375 4.3125 -6.4375 L 1.921875 -6.4375 L 1.921875 -3.765625 Z M 4.34375 -3.765625 "/></g></g></g><g fill="#ffffff" fill-opacity="1"><g transform="translate(256.547214, 279.459298)"><g><path d="M 4.96875 -0.984375 C 5.113281 -0.984375 5.234375 -0.9375 5.328125 -0.84375 C 5.429688 -0.75 5.484375 -0.628906 5.484375 -0.484375 C 5.484375 -0.347656 5.429688 -0.234375 5.328125 -0.140625 C 5.234375 -0.046875 5.113281 0 4.96875 0 L 1.390625 0 C 1.242188 0 1.117188 -0.046875 1.015625 -0.140625 C 0.921875 -0.242188 0.875 -0.367188 0.875 -0.515625 L 0.875 -6.90625 C 0.875 -7.050781 0.921875 -7.171875 1.015625 -7.265625 C 1.117188 -7.367188 1.25 -7.421875 1.40625 -7.421875 C 1.550781 -7.421875 1.671875 -7.367188 1.765625 -7.265625 C 1.867188 -7.171875 1.921875 -7.050781 1.921875 -6.90625 L 1.921875 -0.984375 Z M 4.96875 -0.984375 "/></g></g></g><g fill="#ffffff" fill-opacity="1"><g transform="translate(270.852899, 279.459298)"><g><path d="M 1.921875 -0.515625 C 1.921875 -0.367188 1.867188 -0.242188 1.765625 -0.140625 C 1.660156 -0.046875 1.535156 0 1.390625 0 C 1.242188 0 1.117188 -0.046875 1.015625 -0.140625 C 0.921875 -0.242188 0.875 -0.367188 0.875 -0.515625 L 0.875 -6.90625 C 0.875 -7.050781 0.921875 -7.171875 1.015625 -7.265625 C 1.117188 -7.367188 1.25 -7.421875 1.40625 -7.421875 C 1.550781 -7.421875 1.671875 -7.367188 1.765625 -7.265625 C 1.867188 -7.171875 1.921875 -7.050781 1.921875 -6.90625 Z M 1.921875 -0.515625 "/></g></g></g><g fill="#ffffff" fill-opacity="1"><g transform="translate(282.139342, 279.459298)"><g><path d="M 5.078125 -0.96875 C 5.222656 -0.96875 5.34375 -0.914062 5.4375 -0.8125 C 5.53125 -0.71875 5.578125 -0.609375 5.578125 -0.484375 C 5.578125 -0.335938 5.53125 -0.21875 5.4375 -0.125 C 5.34375 -0.0390625 5.222656 0 5.078125 0 L 1.390625 0 C 1.242188 0 1.117188 -0.046875 1.015625 -0.140625 C 0.921875 -0.242188 0.875 -0.367188 0.875 -0.515625 L 0.875 -6.90625 C 0.875 -7.050781 0.921875 -7.171875 1.015625 -7.265625 C 1.117188 -7.367188 1.242188 -7.421875 1.390625 -7.421875 L 5.078125 -7.421875 C 5.222656 -7.421875 5.34375 -7.375 5.4375 -7.28125 C 5.53125 -7.1875 5.578125 -7.066406 5.578125 -6.921875 C 5.578125 -6.773438 5.53125 -6.65625 5.4375 -6.5625 C 5.34375 -6.476562 5.222656 -6.4375 5.078125 -6.4375 L 1.921875 -6.4375 L 1.921875 -4.28125 L 4.59375 -4.28125 C 4.738281 -4.28125 4.859375 -4.234375 4.953125 -4.140625 C 5.054688 -4.046875 5.109375 -3.929688 5.109375 -3.796875 C 5.109375 -3.640625 5.054688 -3.519531 4.953125 -3.4375 C 4.859375 -3.351562 4.738281 -3.3125 4.59375 -3.3125 L 1.921875 -3.3125 L 1.921875 -0.96875 Z M 5.078125 -0.96875 "/></g></g></g></svg>